# xmcd
#
# Track frame offsets:
# 150
# 21251
# 42539
# 63151
# 83262
# 104008
# 124404
# 137723
# 162841
# 186718
# 205437
# 227344
# 248601
# 271745
# 283330
#
# Disc length: 4054 seconds
#
#
# Revision: 0
# Processed by: cddbd v1.5.2PL0 Copyright (c) Steve Scherf et al.
# Submitted via: FreeRIP 2.96 
#
DISCID=d90fd40f
DTITLE=Eschbach, Andreas - Der Letzte seiner Art CD4v5
DYEAR=2004
DGENRE=Hörbuch
TTITLE0=47 Der Letzte seiner Art
TTITLE1=48 Der Letzte seiner Art
TTITLE2=49 Der Letzte seiner Art
TTITLE3=50 Der Letzte seiner Art
TTITLE4=51 Der Letzte seiner Art
TTITLE5=52 Der Letzte seiner Art
TTITLE6=53 Der Letzte seiner Art
TTITLE7=54 Der Letzte seiner Art
TTITLE8=55 Der Letzte seiner Art
TTITLE9=56 Der Letzte seiner Art
TTITLE10=57 Der Letzte seiner Art
TTITLE11=58 Der Letzte seiner Art
TTITLE12=59 Der Letzte seiner Art
TTITLE13=60 Der Letzte seiner Art
TTITLE14=61 Der Letzte seiner Art
EXTD=gelesen von Martin May
EXTT0=
EXTT1=
EXTT2=
EXTT3=
EXTT4=
EXTT5=
EXTT6=
EXTT7=
EXTT8=
EXTT9=
EXTT10=
EXTT11=
EXTT12=
EXTT13=
EXTT14=
PLAYORDER=
